<?xml version="1.0" encoding="iso-8859-1"?>
<!-- Uploaded to: SVG Repo, www.svgrepo.com, Generator: SVG Repo Mixer Tools -->
<svg height="800px" width="800px" version="1.1" id="Layer_1" xmlns="http://www.w3.org/2000/svg" xmlns:xlink="http://www.w3.org/1999/xlink" 
	 viewBox="0 0 512.002 512.002" xml:space="preserve">
<path style="fill:#CCC2B8;" d="M460.856,252.655c11.23,14.714,17.745,32.233,17.745,51.047c0,38.445-27.228,71.521-66.264,86.147
	v0.013c-13.771,5.168-29.001,8.036-45.036,8.036c-2.326,0-4.628-0.063-6.905-0.189c-58.254-3.006-104.395-43.954-104.395-94.008
	c0,50.053-46.142,91.002-104.395,94.008c-2.277,0.126-4.578,0.189-6.905,0.189c-16.035,0-31.264-2.867-45.036-8.036
	c-39.036-14.639-66.264-47.714-66.264-86.16c0-18.814,6.514-36.332,17.745-51.047c5.055-6.615,6.98-15.167,4.879-23.228
	c-3.409-13.142-5.017-26.461-5.017-40.96c0-101.365,91.782-177.916,204.993-177.916s204.993,76.552,204.993,177.916
	c0,14.501-1.61,27.819-5.017,40.96C453.876,237.488,455.801,246.04,460.856,252.655z M288.108,274.035
	c8.036-14.123-4.716-28.711-32.069-28.711s-40.295,14.664-32.069,28.711c8.64,14.777,32.069,28.711,32.069,28.711
	S279.934,288.396,288.108,274.035z"/>
<path style="fill:#FFF3E6;" d="M412.337,389.861c0.013,1.799,0.025,3.596,0.025,5.42c0,58.63-11.633,106.168-25.983,106.168
	c-12.06,0-22.197-33.528-25.127-78.991c-0.516-7.923-0.805-16.211-0.856-24.737v-0.013c2.277,0.126,4.578,0.189,6.905,0.189
	C383.335,397.898,398.566,395.031,412.337,389.861z"/>
<path style="fill:#B3B3B3;" d="M360.397,397.722c0.051,8.526,0.34,16.814,0.856,24.737c-29.24,19.002-65.711,30.271-105.251,30.271
	s-76.011-11.281-105.251-30.271c0.516-7.923,0.805-16.211,0.856-24.75c58.254-3.006,104.395-43.954,104.395-94.008
	c0,50.053,46.142,91.002,104.395,94.008L360.397,397.722L360.397,397.722z"/>
<path style="fill:#666666;" d="M256.039,245.323c27.353,0,40.106,14.588,32.069,28.711c-8.175,14.362-32.069,28.711-32.069,28.711
	s-23.43-13.934-32.069-28.711C215.744,259.987,228.686,245.323,256.039,245.323z"/>
<path style="fill:#FFF3E6;" d="M151.606,397.709c-0.051,8.539-0.34,16.827-0.856,24.75c-2.931,45.476-13.067,78.991-25.127,78.991
	c-14.35,0-25.983-47.538-25.983-106.168c0-1.824,0.013-3.622,0.025-5.42c13.771,5.168,29.001,8.036,45.036,8.036
	C147.029,397.898,149.329,397.835,151.606,397.709z"/>
<path d="M22.852,303.702c0,39.496,25.771,75.399,66.249,93.228c0.104,28.564,2.897,55.475,7.903,75.932
	c6.445,26.336,15.807,39.14,28.619,39.14c21.98,0,30.735-39.666,34.215-71.989c28.887,15.264,61.79,23.27,96.163,23.27
	c34.387,0,67.29-8.004,96.164-23.265c3.482,32.327,12.237,71.986,34.214,71.986c12.813,0,22.174-12.803,28.619-39.14
	c5.007-20.46,7.799-47.376,7.903-75.944c40.478-17.818,66.249-53.714,66.249-93.214c0-20.518-6.884-40.383-19.913-57.453
	c-3.148-4.12-4.29-9.415-3.05-14.175c3.604-13.896,5.356-28.161,5.356-43.608c0-28.867-6.892-56.345-20.486-81.671
	c-13.025-24.265-31.507-45.331-54.935-62.612c-4.689-3.458-11.293-2.461-14.752,2.227c-3.459,4.689-2.461,11.293,2.227,14.753
	c43.106,31.795,66.845,77.006,66.845,127.302c0,13.637-1.531,26.169-4.678,38.301c-2.903,11.147-0.459,22.918,6.703,32.289
	c10.194,13.355,15.582,28.793,15.582,44.645c0,32.808-23.322,62.745-59.415,76.268c-0.154,0.057-0.305,0.118-0.455,0.183
	c-12.889,4.775-26.639,7.196-40.88,7.196c-2.123,0-4.249-0.058-6.36-0.175c-51.022-2.633-91.38-36.8-94.223-78.738
	c8.233-5.514,23.552-16.871,30.559-29.182v-0.001c4.893-8.598,5.005-18.162,0.307-26.241c-6.74-11.59-21.883-18.238-41.546-18.238
	c-19.799,0-35.004,6.716-41.717,18.425c-4.646,8.104-4.448,17.641,0.54,26.161c7.293,12.473,22.266,23.594,30.424,29.047
	c-2.826,41.953-43.194,76.134-94.263,78.77c-2.073,0.114-4.2,0.173-6.322,0.173c-14.406,0-28.311-2.477-41.332-7.364
	c-36.095-13.536-59.418-43.48-59.418-76.283c0-15.852,5.388-31.292,15.578-44.64c7.165-9.377,9.611-21.147,6.71-32.283
	c-3.149-12.144-4.68-24.676-4.68-38.312c0-93.851,85.41-167.366,194.442-167.366c20.165,0,39.976,2.539,58.885,7.547
	c5.634,1.492,11.407-1.866,12.899-7.498c1.492-5.633-1.865-11.407-7.498-12.899C299.617,2.776,277.988,0,256.001,0
	C135.136,0,40.459,82.784,40.459,188.466c0,15.448,1.752,29.712,5.358,43.62c1.237,4.748,0.096,10.043-3.056,14.168
	C29.737,263.318,22.852,283.184,22.852,303.702z M125.654,489.473c-2.294-3.317-6.081-11.303-9.429-27.247
	c-3.418-16.272-5.486-36.599-5.938-58.009c9.892,2.501,20.117,3.897,30.566,4.173c-0.14,4.549-0.346,9.031-0.629,13.39
	C137.631,462.011,130.072,483.143,125.654,489.473z M395.778,462.226c-3.349,15.942-7.136,23.929-9.429,27.246
	c-4.418-6.331-11.977-27.466-14.569-67.698c-0.284-4.357-0.488-8.836-0.629-13.383c10.448-0.275,20.673-1.671,30.566-4.173
	C401.264,425.627,399.196,445.954,395.778,462.226z M233.074,268.704c-1.677-2.865-0.846-4.315-0.447-5.011
	c2.231-3.892,10.336-7.819,23.412-7.819c12.989,0,21.064,3.891,23.306,7.746c0.386,0.664,1.29,2.219-0.406,5.199
	c-4.309,7.569-15.37,16.194-22.914,21.367C248.584,285.087,237.656,276.542,233.074,268.704z M256.001,346.331
	c16.722,32.169,51.79,55.914,94.016,61.052c0.087,3.177,0.195,6.331,0.348,9.433c-27.678,16.608-60.164,25.365-94.363,25.365
	c-34.182,0-66.668-8.756-94.363-25.367c0.153-3.102,0.262-6.257,0.348-9.433C204.221,402.233,239.282,378.493,256.001,346.331z"/>
<path d="M360.741,23.041c-2.494-1.187-5.045-2.344-7.583-3.439c-5.35-2.309-11.557,0.156-13.868,5.505
	c-2.309,5.35,0.155,11.558,5.505,13.868c2.302,0.994,4.617,2.043,6.879,3.121c1.463,0.696,3.007,1.026,4.526,1.026
	c3.942,0,7.727-2.222,9.534-6.02C368.238,31.839,366.003,25.544,360.741,23.041z"/>
<path d="M141.069,172.783v8.804c0,5.827,4.723,10.55,10.55,10.55s10.55-4.723,10.55-10.55v-8.804c0-5.827-4.723-10.55-10.55-10.55
	S141.069,166.956,141.069,172.783z"/>
<path d="M349.835,172.783v8.804c0,5.827,4.723,10.55,10.55,10.55s10.55-4.723,10.55-10.55v-8.804c0-5.827-4.723-10.55-10.55-10.55
	S349.835,166.956,349.835,172.783z"/>
</svg>