<?xml version="1.0" encoding="UTF-8"?>
<svg version="1.1" xmlns="http://www.w3.org/2000/svg" width="1024" height="1024">
<path d="M0 0 C2.37680588 2.13657741 4.68678825 4.32593421 6.98828125 6.54296875 C8.35667092 7.73808003 9.73141955 8.92596059 11.11328125 10.10546875 C19.20264478 17.20595217 25.69070796 24.80394495 31.98828125 33.54296875 C32.59671875 34.34476562 33.20515625 35.1465625 33.83203125 35.97265625 C41.71348603 46.61262021 46.92421621 58.84961958 51.6640625 71.140625 C53.32733883 75.4141167 55.02276481 79.66520575 57.12109375 83.74609375 C61.22413182 92.21062899 60.85290369 101.34998664 60.98828125 110.54296875 C61.0140625 111.79319824 61.03984375 113.04342773 61.06640625 114.33154297 C61.47521349 134.91798516 61.50380958 154.5537338 54.07421875 174.05078125 C51.66193399 181.80827252 51.7513797 190.04023496 51.42578125 198.10546875 C51.38259766 199.11416016 51.33941406 200.12285156 51.29492188 201.16210938 C51.18998507 203.6222945 51.08782424 206.0825605 50.98828125 208.54296875 C61.48629204 188.01584094 72.20724842 165.41922213 71.96875 141.8359375 C71.94693896 131.92424276 72.66794501 125.44783012 78.70239258 117.45727539 C103.33841201 84.80666041 106.92193189 40.84288304 102.98828125 1.54296875 C121.27315014 18.14274853 127.17165776 56.36819396 130.98828125 79.54296875 C131.18309082 80.62505615 131.18309082 80.62505615 131.38183594 81.72900391 C135.61914882 105.53273216 133.88562409 131.85612149 129.98828125 155.54296875 C129.86501465 156.34025391 129.74174805 157.13753906 129.61474609 157.95898438 C124.53060659 189.83864895 110.8267356 222.45840695 91.98828125 248.54296875 C91.57513672 249.11611816 91.16199219 249.68926758 90.73632812 250.27978516 C85.07636061 258.03645221 78.85669472 265.31029734 72.5546875 272.546875 C70.59914585 274.8298285 68.74499385 277.10739094 66.98828125 279.54296875 C72.45698313 283.49327259 77.99141045 287.17145572 83.80078125 290.60546875 C88.5210257 293.49439195 92.16944755 295.74051133 94.98828125 300.54296875 C95.62661196 304.08925044 95.52988007 305.68133427 93.61328125 308.73046875 C77.84877254 319.61548667 50.85135226 316.30197746 32.98828125 313.54296875 C32.02136353 313.33220703 32.02136353 313.33220703 31.03491211 313.1171875 C25.55810316 312.08090942 22.32392145 313.4154695 17.67578125 316.41796875 C16.25807852 317.26523782 14.83738125 318.10751202 13.4140625 318.9453125 C12.31698975 319.59669189 12.31698975 319.59669189 11.19775391 320.26123047 C-8.0888595 331.44959736 -30.19150422 338.36946553 -51.76171875 343.66796875 C-52.96417236 343.96815918 -52.96417236 343.96815918 -54.19091797 344.27441406 C-61.94711224 346.04547473 -68.85409675 346.2748811 -76.52734375 344.0234375 C-84.58861647 341.82737329 -92.50275254 342.45800165 -100.76171875 342.85546875 C-102.34498961 342.91889692 -103.92832411 342.98075649 -105.51171875 343.04101562 C-109.34602449 343.19029603 -113.17884783 343.36064875 -117.01171875 343.54296875 C-113.38171875 345.19296875 -109.75171875 346.84296875 -106.01171875 348.54296875 C-106.01171875 348.87296875 -106.01171875 349.20296875 -106.01171875 349.54296875 C-162.60216601 352.02742741 -222.28659339 327.63877495 -264.04931641 290.12768555 C-266.7486387 287.64548807 -269.38207226 285.09854069 -272.01171875 282.54296875 C-272.61757813 281.96289062 -273.2234375 281.3828125 -273.84765625 280.78515625 C-280.67928612 274.23236842 -287.28171881 267.56839864 -293.19921875 260.16796875 C-293.63250488 259.63381348 -294.06579102 259.0996582 -294.51220703 258.54931641 C-300.4876081 250.81379323 -302.94222332 242.00259619 -305.13671875 232.60546875 C-305.39533691 231.50589844 -305.65395508 230.40632813 -305.92041016 229.2734375 C-308.01795949 220.06193485 -309.49935271 210.97627075 -310.01171875 201.54296875 C-310.05022949 200.85895996 -310.08874023 200.17495117 -310.12841797 199.47021484 C-311.82887693 163.5744568 -299.24123306 127.03263702 -275.921875 99.77734375 C-273.99017445 97.5858828 -273.99017445 97.5858828 -272.3828125 95.24609375 C-271.93035156 94.6840625 -271.47789062 94.12203125 -271.01171875 93.54296875 C-270.35171875 93.54296875 -269.69171875 93.54296875 -269.01171875 93.54296875 C-269.15246826 94.44885742 -269.29321777 95.35474609 -269.43823242 96.28808594 C-270.77976167 105.49491427 -271.36417327 114.47240278 -271.32421875 123.79296875 C-271.32272827 124.46351288 -271.32123779 125.13405701 -271.31970215 125.82492065 C-271.25499092 142.10534841 -268.98608223 157.06436564 -264.01171875 172.54296875 C-260.80283826 170.20172547 -258.2008257 167.87825905 -256.01171875 164.54296875 C-255.83132555 161.41314681 -256.37084659 158.97848416 -257.16479492 155.95141602 C-259.83500144 145.20516258 -260.37255824 134.38584934 -260.32421875 123.35546875 C-260.3220636 122.68043304 -260.31990845 122.00539734 -260.31768799 121.30990601 C-260.26076909 110.14672866 -259.61884749 99.41560784 -257.01171875 88.54296875 C-256.73763184 87.37677002 -256.73763184 87.37677002 -256.45800781 86.18701172 C-250.34571625 61.22096037 -237.76833776 38.86618257 -221.01171875 19.54296875 C-220.25890625 18.66769531 -219.50609375 17.79242188 -218.73046875 16.890625 C-214.14033946 11.66385106 -209.40925467 6.92670662 -204.01171875 2.54296875 C-203.13644531 1.80691406 -202.26117188 1.07085937 -201.359375 0.3125 C-144.60881835 -45.62842681 -56.89105573 -46.41306622 0 0 Z " fill="#836594" transform="translate(617.01171875,337.45703125)"/>
<path d="M0 0 C18.28486889 16.59977978 24.18337651 54.82522521 28 78 C28.19480957 79.0820874 28.19480957 79.0820874 28.39355469 80.18603516 C32.63086757 103.98976341 30.89734284 130.31315274 27 154 C26.8767334 154.79728516 26.7534668 155.59457031 26.62646484 156.41601562 C21.54232534 188.2956802 7.83845435 220.9154382 -11 247 C-11.41314453 247.57314941 -11.82628906 248.14629883 -12.25195312 248.73681641 C-17.91192064 256.49348346 -24.13158653 263.76732859 -30.43359375 271.00390625 C-32.3891354 273.28685975 -34.2432874 275.56442219 -36 278 C-30.53129812 281.95030384 -24.9968708 285.62848697 -19.1875 289.0625 C-14.46725555 291.9514232 -10.8188337 294.19754258 -8 299 C-7.36166929 302.54628169 -7.45840118 304.13836552 -9.375 307.1875 C-25.13950871 318.07251792 -52.13692899 314.75900871 -70 312 C-70.64461182 311.85949219 -71.28922363 311.71898437 -71.95336914 311.57421875 C-77.43017809 310.53794067 -80.6643598 311.87250075 -85.3125 314.875 C-86.73020273 315.72226907 -88.1509 316.56454327 -89.57421875 317.40234375 C-90.6712915 318.05372314 -90.6712915 318.05372314 -91.79052734 318.71826172 C-111.07714075 329.90662861 -133.17978547 336.82649678 -154.75 342.125 C-155.95245361 342.42519043 -155.95245361 342.42519043 -157.17919922 342.73144531 C-164.93539349 344.50250598 -171.842378 344.73191235 -179.515625 342.48046875 C-187.57689772 340.28440454 -195.49103379 340.9150329 -203.75 341.3125 C-205.33327086 341.37592817 -206.91660536 341.43778774 -208.5 341.49804688 C-212.33430574 341.64732728 -216.16712908 341.81768 -220 342 C-216.37 343.65 -212.74 345.3 -209 347 C-209 347.33 -209 347.66 -209 348 C-243.84159529 349.52963101 -280.72022285 339.94720379 -312 325 C-309.01533524 324.12913499 -306.42722585 323.90342458 -303.32421875 323.97265625 C-302.42203613 323.9866748 -301.51985352 324.00069336 -300.59033203 324.01513672 C-299.63239746 324.0307666 -298.67446289 324.04639648 -297.6875 324.0625 C-274.68248015 324.18556138 -251.58607184 319.50947826 -231 309 C-230.0615625 308.52949219 -229.123125 308.05898438 -228.15625 307.57421875 C-214.40517187 300.0408349 -206.85970565 288.19046603 -201.875 273.73828125 C-201.14414401 271.16271663 -200.51106479 268.62712645 -200 266 C-199.80921875 265.08992188 -199.6184375 264.17984375 -199.421875 263.2421875 C-199.0838958 260.64475475 -199.00368269 258.47923624 -199.10546875 255.890625 C-199.4698649 242.87506974 -195.59167796 235.30047307 -187.69042969 225.17431641 C-186.02892852 223.03720933 -184.43386074 220.86416684 -182.8515625 218.66796875 C-173.49322707 205.76120842 -162.92114202 192.4957386 -150 183 C-149.34 183 -148.68 183 -148 183 C-148.12117187 182.44989258 -148.24234375 181.89978516 -148.3671875 181.33300781 C-151.8477946 165.02100878 -153.27344006 148.68294306 -152 132 C-151 131 -151 131 -147.9375 130.9375 C-146.638125 130.958125 -145.33875 130.97875 -144 131 C-138.24733695 131.06025882 -132.69916751 130.79988316 -127 130 C-127.15847412 131.15951172 -127.31694824 132.31902344 -127.48022461 133.51367188 C-127.99024622 137.60463057 -128.20003473 141.65837333 -128.31640625 145.78125 C-128.3475779 146.82968079 -128.3475779 146.82968079 -128.37937927 147.89929199 C-128.44398535 150.09944259 -128.50333909 152.29969696 -128.5625 154.5 C-128.60577017 156.00521842 -128.64938693 157.51042693 -128.69335938 159.015625 C-128.79957319 162.67697744 -128.90108196 166.33844234 -129 170 C-128.49533203 169.78706299 -127.99066406 169.57412598 -127.47070312 169.35473633 C-120.75537919 166.7930589 -114.63180371 166.58073647 -107.5 166.6875 C-106.42363281 166.68427734 -105.34726562 166.68105469 -104.23828125 166.67773438 C-95.93606856 166.73335212 -88.18750392 167.25198176 -80.9375 171.625 C-80.18339844 172.07101562 -79.42929687 172.51703125 -78.65234375 172.9765625 C-78.10707031 173.31429687 -77.56179688 173.65203125 -77 174 C-77.31124375 163.81481657 -77.8280403 153.76041133 -79.4375 143.6875 C-79.62082886 142.53447388 -79.62082886 142.53447388 -79.80786133 141.3581543 C-80.397929 137.86950859 -81.10379518 134.49963689 -82.12109375 131.109375 C-82.9689102 128.10998879 -83.13528148 126.8382037 -82 124 C-81.15824219 124.32355469 -80.31648437 124.64710938 -79.44921875 124.98046875 C-75.74769914 126.07457591 -72.66497673 126.30011262 -68.8125 126.3125 C-67.60207031 126.32925781 -66.39164063 126.34601563 -65.14453125 126.36328125 C-62.0080245 126.27987832 -62.0080245 126.27987832 -60.07421875 124.48046875 C-59.54248047 123.74763672 -59.54248047 123.74763672 -59 123 C-60.01578125 123.05800781 -61.0315625 123.11601562 -62.078125 123.17578125 C-74.39854745 123.67022123 -83.18451308 121.6776843 -92.6875 113.25 C-94.14103199 111.84978736 -95.5833115 110.43747848 -97 109 C-97.33 108.67 -97.66 108.34 -98 108 C-98.26108699 104.12699534 -98.13265603 100.25394948 -98.0625 96.375 C-98.08473633 94.75271484 -98.08473633 94.75271484 -98.10742188 93.09765625 C-97.92831325 85.16846882 -97.92831325 85.16846882 -95.21826172 81.75732422 C-93.21835151 80.02871089 -91.15407975 78.52701239 -89 77 C-86.93275544 74.28674151 -86.11835058 72.71010346 -85.5625 69.375 C-85.7865175 66.86660855 -85.7865175 66.86660855 -87.8125 65.25 C-93.96352783 61.73512695 -102.02295918 62.09080273 -108.78515625 63.63671875 C-111.63414057 64.58638019 -114.31516811 65.65758406 -117 67 C-117.58776634 69.7446344 -117.58776634 69.7446344 -117 73 C-114.42441061 76.15874171 -111.21025821 78.43700014 -107.53125 80.1484375 C-104.73579285 81.53731969 -102.99512036 82.57860943 -101 85 C-99.30821051 93.61697175 -100.1168937 102.5307749 -105 110 C-111.44143258 119.38608748 -122.67846219 125.00787428 -133.578125 127.6171875 C-142.29646604 128.99524786 -151.10607549 128.15690706 -159 124 C-161.69869868 120.92427724 -163.40577044 117.7503597 -165 114 C-165.33 113.34 -165.66 112.68 -166 112 C-167.04282077 98.68168899 -165.74408273 88.29218419 -156.875 77.6875 C-143.00502704 63.35825641 -123.11862268 57.10237361 -103.55761719 56.75854492 C-86.68327458 56.69432113 -70.42758589 61.03046909 -56 70 C-56.22816406 69.09636719 -56.45632813 68.19273437 -56.69140625 67.26171875 C-56.97886719 66.08222656 -57.26632812 64.90273438 -57.5625 63.6875 C-57.85253906 62.51574219 -58.14257812 61.34398437 -58.44140625 60.13671875 C-59 57 -59 57 -58 54 C-56.89311656 56.49882727 -55.78944889 58.99899729 -54.6875 61.5 C-54.2244043 62.54414063 -54.2244043 62.54414063 -53.75195312 63.609375 C-51.92652359 67.75982531 -50.26393877 71.93443952 -48.70336914 76.19091797 C-47.74994844 78.64313851 -46.54111742 80.95522583 -45.375 83.3125 C-41.92263147 91.71015318 -42.08712796 100.0756071 -42 109 C-41.96223987 110.93576937 -41.92445346 112.87153828 -41.88613892 114.80729675 C-41.51854219 134.74511913 -41.72596056 153.64449043 -48.9140625 172.5078125 C-51.32634726 180.26530377 -51.23690155 188.49726621 -51.5625 196.5625 C-51.60568359 197.57119141 -51.64886719 198.57988281 -51.69335938 199.61914062 C-51.79829618 202.07932575 -51.90045701 204.53959175 -52 207 C-41.50198921 186.47287219 -30.78103283 163.87625338 -31.01953125 140.29296875 C-31.04134229 130.38127401 -30.32033624 123.90486137 -24.28588867 115.91430664 C0.35013076 83.26369166 3.93365064 39.29991429 0 0 Z " fill="#AA8EB5" transform="translate(720,339)"/>
<path d="M0 0 C22.79749546 15.61833558 40.77299368 34.97489375 53.8125 59.375 C54.25142578 60.1896875 54.69035156 61.004375 55.14257812 61.84375 C55.53509766 62.60429687 55.92761719 63.36484375 56.33203125 64.1484375 C56.67983643 64.82052246 57.0276416 65.49260742 57.38598633 66.18505859 C58 68 58 68 57 71 C56.51869629 70.73372803 56.03739258 70.46745605 55.54150391 70.19311523 C37.29982603 60.17076041 19.48657277 52.97520173 -1 49 C-2.4226416 48.71854126 -2.4226416 48.71854126 -3.87402344 48.43139648 C-13.4580156 46.73464023 -22.92475571 46.64303128 -32.625 46.6875 C-33.46860077 46.68965515 -34.31220154 46.6918103 -35.18136597 46.69403076 C-47.35112151 46.74398669 -59.13693967 47.04435698 -71 50 C-71.79970215 50.18804199 -72.5994043 50.37608398 -73.42333984 50.56982422 C-105.14627358 58.18405521 -131.59757351 73.68529192 -155 96 C-155.79148437 96.73863281 -156.58296875 97.47726562 -157.3984375 98.23828125 C-174.30077647 114.45859602 -186.82202458 135.95784836 -194.4375 158 C-196.36996785 163.14073973 -198.37950734 165.90289284 -202.703125 169.21875 C-231.37753441 191.45604709 -247.51561912 229.71764215 -252.52563477 264.66674805 C-253.06115704 269.00994187 -253.12789294 273.28493943 -253.09765625 277.65625 C-253.09553383 278.83785706 -253.09553383 278.83785706 -253.09336853 280.04333496 C-253.08782612 282.52893064 -253.07528485 285.01443211 -253.0625 287.5 C-253.05747754 289.19791535 -253.05291595 290.89583214 -253.04882812 292.59375 C-253.03787564 296.72920229 -253.02065166 300.86458524 -253 305 C-253.66 305 -254.32 305 -255 305 C-261.98861542 288.22251799 -267.97856974 271.61961089 -271.75 253.8125 C-271.94875732 252.87567383 -272.14751465 251.93884766 -272.35229492 250.97363281 C-275.38475659 235.91140998 -276.37854465 221.25826908 -276.3125 205.9375 C-276.31034485 205.03581085 -276.3081897 204.1341217 -276.30596924 203.20510864 C-276.08930901 146.62234954 -255.45484814 94.30592787 -218 52 C-217.2059375 51.09507812 -216.411875 50.19015625 -215.59375 49.2578125 C-207.65171768 40.30942677 -199.35104801 32.46766792 -190 25 C-189.20851563 24.34128906 -188.41703125 23.68257813 -187.6015625 23.00390625 C-132.49617107 -22.4900797 -62.74913568 -39.88292522 0 0 Z " fill="#60356C" transform="translate(550,246)"/>
<path d="M0 0 C2.37680588 2.13657741 4.68678825 4.32593421 6.98828125 6.54296875 C8.35667092 7.73808003 9.73141955 8.92596059 11.11328125 10.10546875 C17.87355922 16.02071198 23.81902436 22.18069379 28.98828125 29.54296875 C28.65828125 30.20296875 28.32828125 30.86296875 27.98828125 31.54296875 C26.48828125 30.16796875 26.48828125 30.16796875 24.98828125 28.54296875 C24.98828125 27.88296875 24.98828125 27.22296875 24.98828125 26.54296875 C24.24191406 26.2696875 23.49554687 25.99640625 22.7265625 25.71484375 C20.17531443 24.62301148 18.37198091 23.45689191 16.17578125 21.79296875 C-2.10580628 9.38217389 -27.14562176 7.87601409 -48.38671875 11.60546875 C-70.02346753 16.32259003 -88.39179284 28.73734397 -100.35702515 47.36882019 C-105.89436582 56.32007609 -110.24554588 65.92646003 -114.76171875 75.41796875 C-116.14412398 78.31051983 -117.52925873 81.20168401 -118.91973877 84.09036255 C-119.77630911 85.87104423 -120.62817542 87.6539999 -121.4743042 89.43966675 C-125.17039941 97.14457732 -128.95494501 103.48619501 -135.01171875 109.54296875 C-135.39585937 110.47496094 -135.78 111.40695312 -136.17578125 112.3671875 C-138.62616117 116.60582341 -141.60822953 118.30128391 -145.76171875 120.73046875 C-146.45265625 121.15521484 -147.14359375 121.57996094 -147.85546875 122.01757812 C-158.5850326 128.50170365 -170.24207066 131.39192299 -182.32421875 134.35546875 C-222.0203041 143.6847194 -222.0203041 143.6847194 -255.01171875 166.54296875 C-256.67838542 168.20963542 -258.34505208 169.87630208 -260.01171875 171.54296875 C-260.67171875 171.21296875 -261.33171875 170.88296875 -262.01171875 170.54296875 C-260.98046875 169.80046875 -259.94921875 169.05796875 -258.88671875 168.29296875 C-256.68566927 166.08158571 -256.01700862 165.12485437 -255.98828125 161.96484375 C-256.34557231 159.97041307 -256.76145702 157.98582009 -257.22729492 156.01391602 C-259.67586476 145.17939459 -260.37278422 134.43741481 -260.32421875 123.35546875 C-260.32098602 122.34291519 -260.32098602 122.34291519 -260.31768799 121.30990601 C-260.26076909 110.14672866 -259.61884749 99.41560784 -257.01171875 88.54296875 C-256.82899414 87.76550293 -256.64626953 86.98803711 -256.45800781 86.18701172 C-250.34571625 61.22096037 -237.76833776 38.86618257 -221.01171875 19.54296875 C-220.25890625 18.66769531 -219.50609375 17.79242188 -218.73046875 16.890625 C-214.14033946 11.66385106 -209.40925467 6.92670662 -204.01171875 2.54296875 C-203.13644531 1.80691406 -202.26117188 1.07085937 -201.359375 0.3125 C-144.60881835 -45.62842681 -56.89105573 -46.41306622 0 0 Z " fill="#CEBBD5" transform="translate(617.01171875,337.45703125)"/>
<path d="M0 0 C54.42691124 -2.82058849 110.22356348 22.65126118 150.4375 57.8125 C155.73519602 62.63552246 160.79974376 67.69480972 165.875 72.75 C166.70829834 73.57862549 167.54159668 74.40725098 168.40014648 75.26098633 C169.19364502 76.05657959 169.98714355 76.85217285 170.8046875 77.671875 C171.87178955 78.74066895 171.87178955 78.74066895 172.96044922 79.83105469 C176.44720079 83.53901506 179.23323009 86.77078957 180.78125 91.66796875 C181.06403809 92.55266846 181.34682617 93.43736816 181.63818359 94.34887695 C181.92258301 95.28562256 182.20698242 96.22236816 182.5 97.1875 C182.80115723 98.15840576 183.10231445 99.12931152 183.41259766 100.12963867 C195.38962862 139.54946866 193.86567789 180.6199643 175.578125 217.8984375 C172.41810345 223.79094828 172.41810345 223.79094828 170 225 C169.81566406 223.86949219 169.63132812 222.73898437 169.44140625 221.57421875 C162.69906731 183.0366858 143.68790038 139.24168927 110.87109375 115.45703125 C110.27425781 115.03808594 109.67742187 114.61914062 109.0625 114.1875 C105.24256557 111.0378906 104.35019598 106.77479217 102.97827148 102.15966797 C100.60724451 94.29056598 96.88434813 87.215167 93 80 C92.45601562 78.97261719 91.91203125 77.94523437 91.3515625 76.88671875 C83.77631213 63.23279187 73.79381696 51.20829953 63 40 C62.41089844 39.35933594 61.82179688 38.71867187 61.21484375 38.05859375 C44.93998641 20.82403967 22.00822544 9.03863914 0 1 C0 0.67 0 0.34 0 0 Z " fill="#A587B2" transform="translate(519,218)"/>
<path d="M0 0 C18.28486889 16.59977978 24.18337651 54.82522521 28 78 C28.12987305 78.7213916 28.25974609 79.4427832 28.39355469 80.18603516 C32.63086757 103.98976341 30.89734284 130.31315274 27 154 C26.8767334 154.79728516 26.7534668 155.59457031 26.62646484 156.41601562 C21.54232534 188.2956802 7.83845435 220.9154382 -11 247 C-11.41314453 247.57314941 -11.82628906 248.14629883 -12.25195312 248.73681641 C-16.99388274 255.23536417 -22.11756326 261.42375643 -27.3125 267.5625 C-27.80419678 268.14668701 -28.29589355 268.73087402 -28.80249023 269.33276367 C-31.6270592 272.62032949 -34.50426854 275.3957119 -38 278 C-44.84191784 269.91031598 -47.92035973 260.91469789 -51.2956543 251.01708984 C-51.86468016 249.38752599 -52.49024364 247.7777719 -53.1328125 246.17578125 C-53.95024354 244.12483941 -54.54799966 242.14447199 -55.0625 240 C-55.21847656 239.360625 -55.37445312 238.72125 -55.53515625 238.0625 C-55.68855469 237.381875 -55.84195313 236.70125 -56 236 C-56.20238281 235.19433594 -56.40476562 234.38867188 -56.61328125 233.55859375 C-57.0390672 230.74152511 -56.74804213 228.83205027 -56.125 226.0625 C-54.78068077 219.41356974 -54.37517847 212.76308566 -54 206 C-53.34 206.33 -52.68 206.66 -52 207 C-41.50198921 186.47287219 -30.78103283 163.87625338 -31.01953125 140.29296875 C-31.04134229 130.38127401 -30.32033624 123.90486137 -24.28588867 115.91430664 C0.35013076 83.26369166 3.93365064 39.29991429 0 0 Z " fill="#D2C1D8" transform="translate(720,339)"/>
<path d="M0 0 C2.90419707 3.41416024 4.42444054 7.1725534 6 11.3125 C6.49912277 12.60060068 6.99911991 13.88836289 7.5 15.17578125 C7.74580811 15.81064453 7.99161621 16.44550781 8.24487305 17.09960938 C8.98995546 18.97472141 9.77721026 20.82561805 10.58203125 22.67578125 C15.13430377 33.34791324 17.4521791 45.80588714 14.05078125 57.171875 C11.88402063 61.79247493 9.47805644 65.33737184 5 68 C4.34 68 3.68 68 3 68 C3.13132324 68.67297119 3.26264648 69.34594238 3.39794922 70.03930664 C8.44664886 96.70376577 7.63458442 124.02935715 6 151 C1.37007968 146.58557553 -1.10987445 141.06443111 -3 135 C-3.01566551 130.75986832 -2.09325336 127.07439331 -1 123 C0.60863073 116.27443847 1.27964854 109.96012227 1.1953125 103.0546875 C1.19106766 101.71085495 1.19106766 101.71085495 1.18673706 100.33987427 C1.1756684 97.51810536 1.1505901 94.69667067 1.125 91.875 C1.11495294 89.94531713 1.10583014 88.01562921 1.09765625 86.0859375 C1.07577294 81.390499 1.04133752 76.69530588 1 72 C0.34 71.67 -0.32 71.34 -1 71 C-0.67 70.34 -0.34 69.68 0 69 C-1.01578125 69.05800781 -2.0315625 69.11601562 -3.078125 69.17578125 C-15.39854745 69.67022123 -24.18451308 67.6776843 -33.6875 59.25 C-35.14103199 57.84978736 -36.5833115 56.43747848 -38 55 C-38.33 54.67 -38.66 54.34 -39 54 C-39.26108699 50.12699534 -39.13265603 46.25394948 -39.0625 42.375 C-39.07732422 41.29347656 -39.09214844 40.21195312 -39.10742188 39.09765625 C-38.92831325 31.16846882 -38.92831325 31.16846882 -36.21826172 27.75732422 C-34.21835151 26.02871089 -32.15407975 24.52701239 -30 23 C-27.93275544 20.28674151 -27.11835058 18.71010346 -26.5625 15.375 C-26.7865175 12.86660855 -26.7865175 12.86660855 -28.8125 11.25 C-34.96352783 7.73512695 -43.02295918 8.09080273 -49.78515625 9.63671875 C-52.63414057 10.58638019 -55.31516811 11.65758406 -58 13 C-58.58776634 15.7446344 -58.58776634 15.7446344 -58 19 C-55.42441061 22.15874171 -52.21025821 24.43700014 -48.53125 26.1484375 C-45.73579285 27.53731969 -43.99512036 28.57860943 -42 31 C-40.30821051 39.61697175 -41.1168937 48.5307749 -46 56 C-52.44143258 65.38608748 -63.67846219 71.00787428 -74.578125 73.6171875 C-83.29646604 74.99524786 -92.10607549 74.15690706 -100 70 C-102.69869868 66.92427724 -104.40577044 63.7503597 -106 60 C-106.33 59.34 -106.66 58.68 -107 58 C-108.04282077 44.68168899 -106.74408273 34.29218419 -97.875 23.6875 C-84.00502704 9.35825641 -64.11862268 3.10237361 -44.55761719 2.75854492 C-27.68327458 2.69432113 -11.42758589 7.03046909 3 16 C2.7834375 15.09636719 2.566875 14.19273437 2.34375 13.26171875 C2.0653125 12.08222656 1.786875 10.90273438 1.5 9.6875 C1.2215625 8.51574219 0.943125 7.34398437 0.65625 6.13671875 C0 3 0 3 0 0 Z " fill="#A386B0" transform="translate(661,393)"/>
<path d="M0 0 C0.66 0 1.32 0 2 0 C1.85925049 0.90588867 1.71850098 1.81177734 1.57348633 2.74511719 C0.23195716 11.95194493 -0.35244947 20.92943662 -0.3125 30.25 C-0.31100952 30.9212088 -0.30951904 31.5924176 -0.3079834 32.28396606 C-0.25784606 44.91240089 0.48019759 57.30050508 4.37109375 69.38671875 C7.63779989 79.7017686 7.63779989 79.7017686 5.7890625 83.46484375 C3.8125 85.5625 3.8125 85.5625 1.48828125 87.640625 C-16.752474 104.93641176 -22.54671249 137.16283328 -25 161 C-29.71686689 157.37320818 -30.60119924 152.7483459 -32.0625 147.25 C-32.31926514 146.31422119 -32.57603027 145.37844238 -32.84057617 144.41430664 C-36.05334723 132.4477802 -38.49307144 120.41206891 -39 108 C-39.05285156 106.7521875 -39.10570312 105.504375 -39.16015625 104.21875 C-40.15753453 68.75028066 -27.98684442 33.20603958 -4.91015625 6.234375 C-2.9784557 4.04291405 -2.9784557 4.04291405 -1.37109375 1.703125 C-0.91863281 1.14109375 -0.46617187 0.5790625 0 0 Z " fill="#A588B2" transform="translate(346,431)"/>
<path d="M0 0 C0.99 0.33 1.98 0.66 3 1 C3.91754524 3.36854701 4.64222125 5.62326449 5.3125 8.0625 C5.74398014 9.52314877 6.17898484 10.98276018 6.6171875 12.44140625 C6.95508301 13.5708667 6.95508301 13.5708667 7.29980469 14.72314453 C11.36569493 28.05583084 11.36569493 28.05583084 18.8984375 39.6171875 C20 41 20 41 20 43 C20.51046875 43.24234375 21.0209375 43.4846875 21.546875 43.734375 C44.46466207 55.55820145 44.46466207 55.55820145 50 64 C50.50159891 67.43953539 50.48701051 69.22521055 48.625 72.1875 C34.22256772 82.13203657 8.35167974 80.26207103 -8.2109375 77.76171875 C-12.44282883 76.91097771 -16.55397894 75.86218353 -20.6875 74.625 C-21.69502319 74.3297644 -21.69502319 74.3297644 -22.72290039 74.02856445 C-26.75099557 72.73519597 -29.27497408 71.24243591 -32 68 C-31.31035156 67.175 -30.62070312 66.35 -29.91015625 65.5 C-13.81283452 45.89561766 -6.42125327 24.40014914 0 0 Z " fill="#836494" transform="translate(662,574)"/>
<path d="M0 0 C3.96 0 7.92 0 12 0 C13.73937208 4.3484302 14.63941925 8.14179296 15.2890625 12.70703125 C15.39721283 13.43242599 15.50536316 14.15782074 15.61679077 14.90519714 C15.95860564 17.20682609 16.29192189 19.50959219 16.625 21.8125 C16.85620945 23.37964022 17.08797439 24.94669859 17.3203125 26.51367188 C17.88664253 30.34153044 18.4453575 34.17043123 19 38 C19.33 38 19.66 38 20 38 C20.20157715 36.99098633 20.4031543 35.98197266 20.61083984 34.94238281 C21.36174518 31.19153288 22.12017363 27.44223695 22.88085938 23.69335938 C23.20875461 22.0720276 23.53462072 20.45028406 23.85839844 18.828125 C24.32471671 16.49367277 24.79836335 14.16080904 25.2734375 11.828125 C25.41623138 11.10506165 25.55902527 10.38199829 25.70614624 9.63702393 C26.44829071 6.03003419 27.33185862 3.33628275 29 0 C32.63 0 36.26 0 40 0 C42.71790411 11.68806193 45.36543322 23.35124099 47.421875 35.17578125 C47.7075294 37.89117462 47.7075294 37.89117462 49 39 C49.14622803 37.99622314 49.29245605 36.99244629 49.44311523 35.95825195 C49.98784756 32.22140351 50.53431567 28.4848106 51.08129883 24.74829102 C51.31744713 23.133451 51.55312953 21.51854278 51.78833008 19.90356445 C52.12718139 17.57745409 52.46772725 15.25159706 52.80859375 12.92578125 C52.96490517 11.84892815 52.96490517 11.84892815 53.12437439 10.75032043 C53.65571152 7.13650576 54.28298343 3.58508284 55 0 C58.96 0 62.92 0 67 0 C66.41314967 7.58037544 65.40500579 14.900317 63.93359375 22.35546875 C63.73524429 23.38311844 63.53689484 24.41076813 63.33253479 25.46955872 C62.70591911 28.70987881 62.07184724 31.94868561 61.4375 35.1875 C61.00796691 37.40159642 60.57892592 39.61578837 60.15039062 41.83007812 C59.10594009 47.22117198 58.05480605 52.61092313 57 58 C51.72 58 46.44 58 41 58 C38.69 46.12 36.38 34.24 34 22 C33.236875 25.7125 32.47375 29.425 31.6875 33.25 C29.96876225 41.55499451 28.16423613 49.79868413 26 58 C21.05 58 16.1 58 11 58 C8.36720684 48.02528523 6.32286186 37.97608977 4.35571289 27.85229492 C3.80869107 25.04293836 3.25321898 22.23533544 2.69726562 19.42773438 C2.34584458 17.63030789 1.99491523 15.83278518 1.64453125 14.03515625 C1.47895218 13.20178238 1.31337311 12.36840851 1.14277649 11.50978088 C0.99229355 10.72804001 0.84181061 9.94629913 0.68676758 9.14086914 C0.55369705 8.45980606 0.42062653 7.77874298 0.28352356 7.07704163 C0 5 0 5 0 0 Z " fill="#683B72" transform="translate(222,730)"/>
<path d="M0 0 C1.03511719 -0.10699219 2.07023438 -0.21398437 3.13671875 -0.32421875 C7.63187707 1.10781816 8.57824676 3.61871301 10.76586914 7.65991211 C11.27625732 8.65901611 11.78664551 9.65812012 12.3125 10.6875 C12.86993896 11.73236572 13.42737793 12.77723145 14.00170898 13.85375977 C15.75683637 17.1604109 17.47612388 20.48298308 19.1875 23.8125 C21.20875 27.73125 23.23 31.65 25.3125 35.6875 C25.6425 24.1375 25.9725 12.5875 26.3125 0.6875 C30.2725 0.6875 34.2325 0.6875 38.3125 0.6875 C38.3125 19.8275 38.3125 38.9675 38.3125 58.6875 C34.0225 58.6875 29.7325 58.6875 25.3125 58.6875 C18.61034901 46.85029805 12.31884958 34.89395237 6.3125 22.6875 C6.3125 34.5675 6.3125 46.4475 6.3125 58.6875 C2.0225 58.6875 -2.2675 58.6875 -6.6875 58.6875 C-6.71005577 51.27289637 -6.72841784 43.85831135 -6.73931217 36.44368076 C-6.74453982 33.00109652 -6.75163531 29.55853688 -6.76293945 26.1159668 C-6.77584235 22.16194957 -6.78072918 18.20794244 -6.78515625 14.25390625 C-6.79031754 13.01226212 -6.79547882 11.77061798 -6.80079651 10.49134827 C-6.80087204 9.35024094 -6.80094757 8.20913361 -6.80102539 7.03344727 C-6.803246 6.023069 -6.80546661 5.01269073 -6.80775452 3.97169495 C-6.57908409 -0.3718246 -3.83804084 0.28797108 0 0 Z " fill="#6A3F76" transform="translate(565.6875,729.3125)"/>
<path d="M0 0 C3.79151583 -0.08829061 7.58276165 -0.14081946 11.375 -0.1875 C12.96634766 -0.22520508 12.96634766 -0.22520508 14.58984375 -0.26367188 C22.7203401 -0.33849239 30.83055329 0.26149104 37.5 5.375 C42.13302855 10.23967997 42.38439699 14.87140934 42.25390625 21.34375 C41.72986152 26.82606407 39.14760881 30.52136035 35 34 C34.34 34 33.68 34 33 34 C33.81404297 35.62808594 33.81404297 35.62808594 34.64453125 37.2890625 C38.95703125 45.9140625 38.95703125 45.9140625 40.00244141 48.01660156 C40.89995164 49.8010786 41.8289335 51.56964347 42.76171875 53.3359375 C44 56 44 56 44 59 C39.71 59 35.42 59 31 59 C29.53504663 56.46195322 28.07795678 53.91990283 26.625 51.375 C26.2125 50.66214844 25.8 49.94929687 25.375 49.21484375 C23.10508926 45.22419422 21.27534989 41.44270238 20 37 C17.69 37 15.38 37 13 37 C13 43.93 13 50.86 13 58 C3.72265625 58.09765625 3.72265625 58.09765625 1 58 C0 57 0 57 -0.12025452 54.71580505 C-0.11803391 53.70542679 -0.11581329 52.69504852 -0.11352539 51.65405273 C-0.11344986 50.5129454 -0.11337433 49.37183807 -0.11329651 48.19615173 C-0.10813522 46.9545076 -0.10297394 45.71286346 -0.09765625 44.43359375 C-0.0962413 43.16983414 -0.09482635 41.90607452 -0.09336853 40.60401917 C-0.08870582 37.23875111 -0.0797148 33.8735501 -0.06866455 30.50830078 C-0.05844846 27.0765033 -0.05387049 23.64469891 -0.04882812 20.21289062 C-0.0377738 13.47524176 -0.0210171 6.73762475 0 0 Z M13 11 C13 16.28 13 21.56 13 27 C18.9855591 27.27207087 22.77024819 27.26859488 28 24 C29.8503199 22.1496801 29.29140132 19.57527918 29.42578125 17.10546875 C28.79533954 13.9879634 27.53257925 12.87335764 25 11 C21.95559865 10.51804725 21.95559865 10.51804725 18.75 10.75 C16.8525 10.8325 14.955 10.915 13 11 Z " fill="#683B75" transform="translate(387,730)"/>
<path d="M0 0 C5.7430959 4.22323104 8.39100547 10.08604453 10.05078125 16.88671875 C11.51851922 28.53854471 10.62173616 39.22047424 3.30078125 48.76171875 C-1.9124702 54.23369236 -6.84074145 56.11407854 -14.38671875 56.38671875 C-22.02385069 56.11270128 -27.91681516 54.38583372 -33.26171875 48.76171875 C-40.52065876 39.11683188 -41.27087507 28.58407279 -39.94921875 16.88671875 C-38.48032437 10.50841802 -35.67134947 5.39420717 -30.94921875 0.88671875 C-20.90646549 -5.34740553 -10.3713371 -5.92350916 0 0 Z M-21.94921875 9.88671875 C-22.50609375 10.29921875 -23.06296875 10.71171875 -23.63671875 11.13671875 C-27.99968247 16.95400371 -27.54485926 24.98645252 -26.94921875 31.88671875 C-25.84914471 36.84106681 -23.95754699 40.65419597 -19.94921875 43.88671875 C-17.08313746 45.31975939 -15.13621092 45.1931603 -11.94921875 44.88671875 C-7.80650004 43.01843384 -5.70795342 41.12176176 -4.07421875 36.94921875 C-1.66106695 28.24463546 -1.76766549 18.95114289 -5.94921875 10.88671875 C-8.32585189 8.25544634 -9.91461346 7.89552737 -13.38671875 7.01171875 C-17.42608897 6.86998646 -18.80631149 7.44223533 -21.94921875 9.88671875 Z " fill="#653873" transform="translate(652.94921875,733.11328125)"/>
<path d="M0 0 C1.97909398 -0.02686553 3.95828971 -0.04633375 5.9375 -0.0625 C7.03964844 -0.07410156 8.14179688 -0.08570313 9.27734375 -0.09765625 C12 0 12 0 13 1 C13.12328105 3.89691378 13.18616191 6.77364405 13.2109375 9.671875 C13.23901575 11.46875896 13.26768028 13.26563383 13.296875 15.0625 C13.33808885 17.90429337 13.37496208 20.74591894 13.40136719 23.58789062 C13.42902014 26.32457892 13.47490398 29.06048792 13.5234375 31.796875 C13.52669037 32.64288269 13.52994324 33.48889038 13.53329468 34.36053467 C13.63043073 39.03499325 13.94967294 42.21204584 17 46 C20.3650593 47.37504476 23.87387876 47.26671293 27.375 46.4375 C30.17274476 43.96257195 30.83441564 40.60269016 31.21124268 36.9553833 C31.32574032 34.59678376 31.38088687 32.24395148 31.4140625 29.8828125 C31.43342865 29.02565643 31.4527948 28.16850037 31.4727478 27.28536987 C31.53221256 24.56534572 31.57879569 21.84527848 31.625 19.125 C31.6632103 17.27341972 31.70226378 15.42185663 31.7421875 13.5703125 C31.83788664 9.04701575 31.92203906 4.52363584 32 0 C36.29 0 40.58 0 45 0 C45.07473651 5.37106359 45.12887661 10.74181753 45.16479492 16.11328125 C45.17978489 17.93657715 45.20018384 19.7598376 45.22631836 21.58300781 C45.57330567 46.43002038 45.57330567 46.43002038 37.640625 54.59375 C31.81798819 59.58458155 25.81181463 59.52515666 18.38671875 59.3515625 C12.51326687 58.74186161 8.87159749 56.82101377 4.6875 52.75 C0.44924931 45.8432211 -0.43288069 39.95950231 -0.29296875 32.03125 C-0.28872391 31.11033569 -0.28447906 30.18942139 -0.28010559 29.24060059 C-0.26344065 26.32675755 -0.22581188 23.41363061 -0.1875 20.5 C-0.17243739 18.51303089 -0.15875175 16.52605083 -0.14648438 14.5390625 C-0.11357716 9.69243643 -0.06188031 4.84633922 0 0 Z " fill="#683C75" transform="translate(438,730)"/>
<path d="M0 0 C0.96035156 0.32742188 1.92070313 0.65484375 2.91015625 0.9921875 C7.43156859 2.2840196 11.76792046 2.22283164 16.4375 2.125 C17.26443359 2.11597656 18.09136719 2.10695313 18.94335938 2.09765625 C20.96236708 2.07431512 22.98122356 2.03845288 25 2 C30.11399073 28.6354756 26.89892655 61.15362902 11.92578125 84.19140625 C10.357485 86.22414724 8.77775686 88.15002177 7 90 C2.125 89.125 2.125 89.125 1 88 C0.75679901 81.65806657 1.34374961 75.79719424 2.4375 69.5625 C2.71517445 67.8752679 2.99123751 66.18776976 3.265625 64.5 C3.39517578 63.70980469 3.52472656 62.91960938 3.65820312 62.10546875 C6.58481345 44.07754912 6.00611566 24.79410748 0.8984375 7.20703125 C0 4 0 4 0 0 Z " fill="#F6EFDA" transform="translate(637,463)"/>
<path d="M0 0 C-0.14219971 0.78036621 -0.28439941 1.56073242 -0.4309082 2.36474609 C-1.81553821 10.52211517 -2.27711884 18.36119917 -2.1875 26.625 C-2.18685547 27.76195312 -2.18621094 28.89890625 -2.18554688 30.0703125 C-2.12324747 42.14255185 -0.73878037 53.0738216 2.27148438 64.75 C3.86016676 71.27147172 4.28445556 77.29624962 4 84 C1.62231445 84.58178711 1.62231445 84.58178711 -1 85 C-14.39479865 76.04339811 -20.47978592 52.33140716 -23.8125 37.8125 C-25.92107236 25.85201048 -25.8021492 13.09665302 -25 1 C-24 0 -24 0 -20.796875 -0.0625 C-18.77187096 -0.03844055 -16.74742162 0.00004968 -14.72265625 0.0390625 C-11.81009447 0.07339525 -9.12509016 0.02573283 -6.265625 -0.5625 C-3.78233791 -1.0420313 -2.39713621 -0.68021732 0 0 Z " fill="#F6EFD9" transform="translate(593,470)"/>
<path d="M0 0 C4.95 0 9.9 0 15 0 C18.51928711 10.55786133 22.03857422 21.11572266 25.55786133 31.67358398 C25.79277786 32.37815231 26.0276944 33.08272064 26.26972961 33.80863953 C26.78545189 35.35619428 27.30069532 36.90390865 27.81559753 38.45173645 C28.08205582 39.25238022 28.3485141 40.05302399 28.62304688 40.87792969 C28.98468933 41.96530426 28.98468933 41.96530426 29.3536377 43.074646 C29.87339964 44.62288872 30.40881256 46.16587287 30.94921875 47.70703125 C31.19285156 48.40183594 31.43648438 49.09664062 31.6875 49.8125 C31.93886719 50.52019531 32.19023437 51.22789062 32.44921875 51.95703125 C33 54 33 54 33 58 C28.71 58 24.42 58 20 58 C18.37755886 53.27375841 16.98253624 48.9126812 16 44 C10.39 44 4.78 44 -1 44 C-1.99 48.62 -2.98 53.24 -4 58 C-8.62 58 -13.24 58 -18 58 C-16.03468032 50.66773159 -13.94172844 43.39805873 -11.6796875 36.15234375 C-11.37555939 35.1738295 -11.07143127 34.19531525 -10.75808716 33.18714905 C-10.12205305 31.14245874 -9.48507093 29.09806311 -8.84716797 27.05395508 C-7.86800555 23.91507805 -6.89279927 20.77499036 -5.91796875 17.63476562 C-5.29710864 15.64055224 -4.67602315 13.64640902 -4.0546875 11.65234375 C-3.76302704 10.71285385 -3.47136658 9.77336395 -3.17086792 8.80540466 C-2.900336 7.9401265 -2.62980408 7.07484833 -2.35107422 6.18334961 C-2.11363495 5.42154892 -1.87619568 4.65974823 -1.63156128 3.87486267 C-1 2 -1 2 0 0 Z M7 12 C6.1606242 15.10256512 5.3295495 18.20729444 4.5 21.3125 C4.26152344 22.19357422 4.02304687 23.07464844 3.77734375 23.98242188 C3.55175781 24.82998047 3.32617188 25.67753906 3.09375 26.55078125 C2.88427734 27.33106689 2.67480469 28.11135254 2.45898438 28.9152832 C1.89249166 31.13253096 1.89249166 31.13253096 2 34 C5.63 34 9.26 34 13 34 C12.38955672 26.36945905 10.20378179 19.29810526 8 12 C7.67 12 7.34 12 7 12 Z " fill="#663972" transform="translate(306,730)"/>
<path d="M0 0 C1.12775345 0.00212242 1.12775345 0.00212242 2.27828979 0.00428772 C4.6829626 0.0098916 7.08754277 0.02244468 9.4921875 0.03515625 C11.12109241 0.04017075 12.74999877 0.04473375 14.37890625 0.04882812 C18.37503577 0.05986228 22.37109592 0.07712946 26.3671875 0.09765625 C26.3671875 3.72765625 26.3671875 7.35765625 26.3671875 11.09765625 C23.09629936 11.12458946 19.82563228 11.14446289 16.5546875 11.16015625 C15.62591797 11.16853516 14.69714844 11.17691406 13.74023438 11.18554688 C12.84755859 11.18876953 11.95488281 11.19199219 11.03515625 11.1953125 C10.21297607 11.20054932 9.3907959 11.20578613 8.54370117 11.21118164 C6.3671875 11.09765625 6.3671875 11.09765625 3.3671875 10.09765625 C3.3465625 11.31453125 3.3259375 12.53140625 3.3046875 13.78515625 C3.29308594 14.46964844 3.28148437 15.15414062 3.26953125 15.859375 C3.37830976 18.3525784 3.82607611 20.66478538 4.3671875 23.09765625 C5.65496094 23.08605469 6.94273437 23.07445312 8.26953125 23.0625 C9.94791522 23.05312355 11.62630076 23.0440232 13.3046875 23.03515625 C14.57989258 23.02258789 14.57989258 23.02258789 15.88085938 23.00976562 C16.68974609 23.00654297 17.49863281 23.00332031 18.33203125 23 C19.080896 22.99476318 19.82976074 22.98952637 20.60131836 22.98413086 C22.3671875 23.09765625 22.3671875 23.09765625 23.3671875 24.09765625 C23.43924261 25.78374591 23.45104818 27.47266284 23.4296875 29.16015625 C23.42066406 30.07925781 23.41164063 30.99835937 23.40234375 31.9453125 C23.39074219 32.65558594 23.37914062 33.36585938 23.3671875 34.09765625 C20.8046157 34.12475748 18.24233385 34.14454396 15.6796875 34.16015625 C14.95845703 34.16853516 14.23722656 34.17691406 13.49414062 34.18554688 C9.55629508 34.2035279 6.26786684 33.87779212 2.3671875 33.09765625 C2.6971875 37.71765625 3.0271875 42.33765625 3.3671875 47.09765625 C5.01589844 47.08605469 6.66460938 47.07445312 8.36328125 47.0625 C10.51041554 47.05312387 12.65755105 47.04402348 14.8046875 47.03515625 C15.89330078 47.02677734 16.98191406 47.01839844 18.10351562 47.00976562 C19.13798828 47.00654297 20.17246094 47.00332031 21.23828125 47 C22.19661865 46.99476318 23.15495605 46.98952637 24.14233398 46.98413086 C26.3671875 47.09765625 26.3671875 47.09765625 27.3671875 48.09765625 C27.43924261 49.78374591 27.45104818 51.47266284 27.4296875 53.16015625 C27.42066406 54.07925781 27.41164063 54.99835937 27.40234375 55.9453125 C27.39074219 56.65558594 27.37914062 57.36585938 27.3671875 58.09765625 C22.25854854 58.12230635 17.14994391 58.14049232 12.04125977 58.15258789 C10.30199582 58.15762829 8.56273614 58.16446055 6.82348633 58.1730957 C4.32892813 58.18517417 1.83442577 58.19088733 -0.66015625 58.1953125 C-1.44245102 58.20047379 -2.22474579 58.20563507 -3.03074646 58.21095276 C-4.89848364 58.21114851 -6.76610454 58.15965319 -8.6328125 58.09765625 C-9.6328125 57.09765625 -9.6328125 57.09765625 -9.75306702 54.85142517 C-9.75084641 53.8588118 -9.74862579 52.86619843 -9.74633789 51.84350586 C-9.74626236 50.72241928 -9.74618683 49.6013327 -9.74610901 48.4462738 C-9.74094772 47.22650345 -9.73578644 46.00673309 -9.73046875 44.75 C-9.7290538 43.50843643 -9.72763885 42.26687286 -9.72618103 40.98768616 C-9.72151841 37.68160134 -9.71252747 34.37558479 -9.70147705 31.06951904 C-9.69126077 27.69804475 -9.68668295 24.32656342 -9.68164062 20.95507812 C-9.67058645 14.3359185 -9.65382986 7.71679132 -9.6328125 1.09765625 C-6.56686656 -0.43531672 -3.36169397 -0.0236583 0 0 Z " fill="#643972" transform="translate(725.6328125,729.90234375)"/>
<path d="M0 0 C3.0625 2.1875 3.0625 2.1875 5 4 C4.42647107 7.87132028 2.51295648 10.08172796 0 13 C-0.639375 12.71125 -1.27875 12.4225 -1.9375 12.125 C-9.37593081 9.32172129 -9.37593081 9.32172129 -17.0625 9.875 C-17.701875 10.24625 -18.34125 10.6175 -19 11 C-19 12.65 -19 14.3 -19 16 C-18.2265625 16.38671875 -17.453125 16.7734375 -16.65625 17.171875 C-14.49687192 18.25156404 -12.33940519 19.33508195 -10.18359375 20.421875 C-8.33632101 21.3375783 -6.47869355 22.23395216 -4.59765625 23.078125 C0.26936673 25.28276497 2.91285492 27.60315701 6 32 C7.72237197 37.1671159 7.65561622 42.10599758 5.875 47.25 C2.55617547 52.11760932 -1.42088905 55.19099129 -7 57 C-15.60707256 57.90379517 -23.41540258 57.38484539 -31 53 C-33.625 50.75 -33.625 50.75 -35 49 C-33.47291037 45.56404834 -31.40072955 42.88087546 -29 40 C-26.24753081 41.05241469 -23.74543671 42.14708101 -21.1875 43.625 C-17.05365554 45.40822702 -14.47998752 45.36721209 -10 45 C-9.01 44.34 -8.02 43.68 -7 43 C-6.41649495 40.54290625 -6.41649495 40.54290625 -7 38 C-10.1837533 35.04977384 -13.88146729 33.71382484 -17.875 32.125 C-28.76321223 27.62891442 -28.76321223 27.62891442 -32.1171875 22.1875 C-33.82863844 17.94673661 -33.52037301 13.48171256 -33 9 C-30.12510271 2.91848651 -25.78919887 0.01425413 -19.5625 -2.25 C-12.38633977 -3.76077057 -6.63436551 -2.96376329 0 0 Z " fill="#663974" transform="translate(794,732)"/>
<path d="M0 0 C0.99 0.66 1.98 1.32 3 2 C2.46930939 5.82097239 1.50298434 8.06171403 -1 11 C-3.7536515 10.5140615 -6.15253734 9.93759836 -8.75 8.875 C-13.04628451 7.71830802 -16.65944075 8.28621915 -21 9 C-21 11.31 -21 13.62 -21 16 C-19.9790625 16.40798828 -19.9790625 16.40798828 -18.9375 16.82421875 C-17.968125 17.21222656 -16.99875 17.60023438 -16 18 C-14.88625 18.43957031 -13.7725 18.87914062 -12.625 19.33203125 C-11.42875 19.82058594 -10.2325 20.30914063 -9 20.8125 C-7.205625 21.53373047 -7.205625 21.53373047 -5.375 22.26953125 C-0.68021357 24.67669605 2.09694033 27.6454105 5 32 C6.5443208 37.93969539 5.86163977 42.64659227 3 48 C-1.17326889 52.83112408 -5.82621203 55.67035536 -12.234375 56.3359375 C-21.24365712 56.43604063 -28.40920924 55.73695849 -35.0625 49.25 C-35.701875 48.5075 -36.34125 47.765 -37 47 C-35.02 44.36 -33.04 41.72 -31 39 C-28.27844151 40.04059589 -25.86037528 41.08643435 -23.375 42.625 C-18.58201995 44.57769558 -14.10963228 44.24548055 -9 44 C-8.49874717 40.66857722 -8.49874717 40.66857722 -9 37 C-12.52588476 33.66999773 -16.58657177 32.34514466 -21.0625 30.5625 C-27.04227755 28.13506555 -30.29844305 25.640347 -33.8125 20.1875 C-35.58313632 15.43473935 -36.0046213 11.55806349 -34.15625 6.8515625 C-31.22989035 1.53270612 -27.6723997 -1.00394683 -22 -3 C-13.7707123 -5.35577288 -7.51583126 -3.65779354 0 0 Z " fill="#633672" transform="translate(527,733)"/>
<path d="M0 0 C3.69739081 1.43962238 4.909952 3.02728816 6.625 6.5625 C7.02976562 7.36816406 7.43453125 8.17382812 7.8515625 9.00390625 C13.80740448 24.54176611 12.79510264 45.04348324 6.265625 60.19921875 C2.82215697 67.66648574 -0.99503795 74.2933406 -7 80 C-7.91072266 80.97453125 -7.91072266 80.97453125 -8.83984375 81.96875 C-21.56841317 94.67288839 -41.3497617 99.35953301 -58.375 103.25 C-59.087771 103.41338867 -59.80054199 103.57677734 -60.53491211 103.74511719 C-69.74232947 105.74039442 -78.91287592 106.1810751 -88.3125 106.1875 C-89.75592773 106.20586914 -89.75592773 106.20586914 -91.22851562 106.22460938 C-100.23848161 106.24331519 -100.23848161 106.24331519 -104 104 C-106.65157764 99.97691668 -107.69840972 96.78909521 -107 92 C-103.02036702 84.37237013 -96.09159037 78.80899433 -89.4375 73.5625 C-77.87022029 64.1710848 -73.5686173 53.49763749 -70 39.25 C-68.5047121 33.41958305 -66.8806569 27.72673035 -63 23 C-60.84375 21.76953125 -60.84375 21.76953125 -59 21 C-59.5583099 25.18425662 -60.54355806 28.55233289 -62.3125 32.375 C-64.41228842 37.21051277 -65.78307791 41.88591014 -66.9375 47 C-71.01638931 64.28214774 -80.76382732 74.21910629 -94.58984375 84.9296875 C-97.1329583 87.11421053 -99.10502354 89.23377 -101 92 C-101.33465889 95.70940775 -101.33465889 95.70940775 -101 99 C-97.01573315 101.70629446 -92.813106 101.30307322 -88.1875 101.25 C-86.91543701 101.23984863 -86.91543701 101.23984863 -85.61767578 101.22949219 C-61.60827725 100.84144327 -28.7477746 94.82278304 -10.546875 77.703125 C2.3934974 63.45564428 6.96086192 44.07063528 6.36328125 25.171875 C5.91471074 18.15786333 4.0895284 11.0565672 0.8671875 4.80078125 C0 3 0 3 0 0 Z " fill="#522561" transform="translate(511,558)"/>
<path d="M0 0 C1.36560059 0.00303635 1.36560059 0.00303635 2.75878906 0.00613403 C3.68723633 0.00517731 4.61568359 0.00422058 5.57226562 0.00323486 C7.53938871 0.00255298 9.50651403 0.00440781 11.47363281 0.00857544 C14.49581932 0.01392358 17.51785721 0.00863071 20.54003906 0.00222778 C22.44628939 0.00288856 24.35253963 0.00416972 26.25878906 0.00613403 C27.16918945 0.0041098 28.07958984 0.00208557 29.01757812 0 C35.39383938 0.02399685 35.39383938 0.02399685 36.50878906 1.13894653 C36.60669476 2.63632778 36.63853771 4.13837545 36.63378906 5.63894653 C36.63765625 6.86097778 36.63765625 6.86097778 36.64160156 8.10769653 C36.50878906 10.13894653 36.50878906 10.13894653 35.50878906 11.13894653 C30.88878906 11.13894653 26.26878906 11.13894653 21.50878906 11.13894653 C21.50878906 26.64894653 21.50878906 42.15894653 21.50878906 58.13894653 C17.21878906 58.13894653 12.92878906 58.13894653 8.50878906 58.13894653 C8.50878906 42.62894653 8.50878906 27.11894653 8.50878906 11.13894653 C3.55878906 11.13894653 -1.39121094 11.13894653 -6.49121094 11.13894653 C-7.49121094 10.13894653 -7.49121094 10.13894653 -7.62402344 8.10769653 C-7.62144531 7.29300903 -7.61886719 6.47832153 -7.61621094 5.63894653 C-7.61878906 4.82425903 -7.62136719 4.00957153 -7.62402344 3.17019653 C-7.32806669 -1.35620073 -3.71976723 0.01399922 0 0 Z " fill="#6B4078" transform="translate(672.4912109375,729.8610534667969)"/>
<path d="M0 0 C2 2 2 2 2.0625 5.125 C1.20295181 10.18678377 -2.39317036 13.57429936 -6 17 C-6.99 17.66 -7.98 18.32 -9 19 C-9.89776681 22.83103635 -9.93129449 26.76496338 -10.125 30.6875 C-10.26421875 32.30301758 -10.26421875 32.30301758 -10.40625 33.95117188 C-10.75317965 39.84699964 -10.75317965 39.84699964 -8.6484375 45.21191406 C-5.19561471 48.82324586 -1.2802751 51.27248771 3.25 53.375 C4.26578125 53.85710937 5.2815625 54.33921875 6.328125 54.8359375 C10.98558592 56.86506521 15.17396726 57.2954035 20.1875 57.5625 C21.31188477 57.62727539 21.31188477 57.62727539 22.45898438 57.69335938 C24.30578375 57.79922685 26.15286834 57.9000976 28 58 C27 61 27 61 25 62 C11.11612825 63.33866532 1.03365172 59.20782178 -9.75 50.875 C-12 49 -12 49 -14 47 C-14.40089844 47.50789063 -14.80179688 48.01578125 -15.21484375 48.5390625 C-24.33095071 59.57761378 -36.98730761 65.74953202 -51.2890625 67.23828125 C-58.20686914 67.45807778 -63.67078138 65.69533264 -70 63 C-70 62.01 -70 61.02 -70 60 C-64.26666667 60.93333333 -64.26666667 60.93333333 -61.75 61.5625 C-48.47587868 63.67429203 -36.12025598 59.38008938 -25.2578125 51.78125 C-18.61117797 46.62266798 -15.70344978 40.33645622 -14.3828125 32.1953125 C-14.0208843 27.89610762 -14.0660545 24.24131215 -15 20 C-17.78113977 17.06482788 -20.40387954 15.42891251 -23.984375 13.578125 C-26.97999593 12.01046845 -28.8756126 10.61463064 -31 8 C-31.25 4.75 -31.25 4.75 -31 2 C-22.06108 -3.43346118 -9.29033098 -6.52834069 0 0 Z " fill="#512560" transform="translate(633,404)"/>
<path d="M0 0 C3.96 0 7.92 0 12 0 C12 15.51 12 31.02 12 47 C19.59 47 27.18 47 35 47 C35 50.63 35 54.26 35 58 C30.03377651 58.02465098 25.06758834 58.04283649 20.10131836 58.05493164 C18.41055684 58.0599719 16.71979971 58.06680405 15.02905273 58.07543945 C12.60399293 58.08751857 10.17899056 58.09323123 7.75390625 58.09765625 C6.61327477 58.10539818 6.61327477 58.10539818 5.44960022 58.11329651 C3.6326743 58.11349238 1.81586873 58.06197277 0 58 C-1.70565618 56.29434382 -1.12752055 54.09266505 -1.12939453 51.76171875 C-1.13254669 50.64385986 -1.13569885 49.52600098 -1.13894653 48.37426758 C-1.1369223 47.15763428 -1.13489807 45.94100098 -1.1328125 44.6875 C-1.13376923 43.44830811 -1.13472595 42.20911621 -1.13571167 40.93237305 C-1.13639374 38.30611719 -1.13503538 35.67995367 -1.13037109 33.05371094 C-1.12467381 29.68071286 -1.12795302 26.30779435 -1.13394356 22.93479919 C-1.1384177 19.72736323 -1.13528882 16.519937 -1.1328125 13.3125 C-1.13483673 12.0958667 -1.13686096 10.8792334 -1.13894653 9.62573242 C-1.13579437 8.50787354 -1.13264221 7.39001465 -1.12939453 6.23828125 C-1.12859894 5.24868408 -1.12780334 4.25908691 -1.12698364 3.23950195 C-1 1 -1 1 0 0 Z " fill="#6A3E76" transform="translate(345,730)"/>
<path d="M0 0 C0.61875 0.268125 1.2375 0.53625 1.875 0.8125 C6.17994393 2.4483787 10.58031552 3.71271326 15 5 C-6.88568157 23.27739535 -51.33729864 41.37856552 -80.39282227 40.29003906 C-83.15726725 39.98250459 -85.53964849 39.27681904 -88.1953125 38.45703125 C-96.3930443 36.34828995 -104.37670168 36.90953061 -112.75 37.3125 C-114.33327086 37.37592817 -115.91660536 37.43778774 -117.5 37.49804688 C-121.33430574 37.64732728 -125.16712908 37.81768 -129 38 C-126.69 38.99 -124.38 39.98 -122 41 C-123.625 41.6875 -123.625 41.6875 -126 42 C-129.25 40.5625 -129.25 40.5625 -132 39 C-132 38.01 -132 37.02 -132 36 C-131.41515839 35.98604691 -130.83031677 35.97209381 -130.22775269 35.9577179 C-64.43489227 35.70731997 -64.43489227 35.70731997 -7 7 C-6.20142578 6.15888672 -6.20142578 6.15888672 -5.38671875 5.30078125 C-4 4 -4 4 -2 4 C-1.34 2.68 -0.68 1.36 0 0 Z " fill="#D9C9DF" transform="translate(629,643)"/>
<path d="M0 0 C4.25260085 4.25260085 4.38386769 10.07608916 4.625 15.8125 C4.66077148 16.6065625 4.69654297 17.400625 4.73339844 18.21875 C5.69229581 42.94916995 6.58021294 67.15379415 -1.92578125 90.73046875 C-3.28999412 94.88263664 -3.77105031 98.64995594 -4 103 C-4.33 103 -4.66 103 -5 103 C-5.01981934 102.24195068 -5.03963867 101.48390137 -5.06005859 100.70288086 C-5.49024454 84.94167574 -6.19440524 69.29213209 -7.74609375 53.59667969 C-8.18903363 49.06676765 -8.59232639 44.53320042 -9 40 C-7.6696875 39.319375 -7.6696875 39.319375 -6.3125 38.625 C-1.70598463 35.44092406 0.47692664 31.32095158 2 26 C3.06751269 17.29236129 2.44713243 8.41201772 0 0 Z " fill="#D4C3DA" transform="translate(673,421)"/>
<path d="M0 0 C2.37680588 2.13657741 4.68678825 4.32593421 6.98828125 6.54296875 C8.35667092 7.73808003 9.73141955 8.92596059 11.11328125 10.10546875 C17.87355922 16.02071198 23.81902436 22.18069379 28.98828125 29.54296875 C28.65828125 30.20296875 28.32828125 30.86296875 27.98828125 31.54296875 C26.48828125 30.16796875 26.48828125 30.16796875 24.98828125 28.54296875 C24.98828125 27.88296875 24.98828125 27.22296875 24.98828125 26.54296875 C23.99828125 26.21296875 23.00828125 25.88296875 21.98828125 25.54296875 C20.96961896 23.88764252 19.97292361 22.2187543 18.98828125 20.54296875 C-8.98056217 -10.63851209 -49.1000573 -29.58593198 -90.75 -32.296875 C-134.78172595 -34.45891184 -176.04745544 -19.47798988 -208.88671875 9.66796875 C-213.25403267 13.73278474 -217.26914304 17.89925226 -221.01171875 22.54296875 C-221.78128906 23.4865625 -222.55085938 24.43015625 -223.34375 25.40234375 C-253.22816681 62.70557865 -261.5472955 105.64834488 -257.01171875 152.54296875 C-257.34171875 152.54296875 -257.67171875 152.54296875 -258.01171875 152.54296875 C-259.66529063 142.73985258 -260.3678126 133.30296361 -260.32421875 123.35546875 C-260.32098602 122.34291519 -260.32098602 122.34291519 -260.31768799 121.30990601 C-260.26076909 110.14672866 -259.61884749 99.41560784 -257.01171875 88.54296875 C-256.82899414 87.76550293 -256.64626953 86.98803711 -256.45800781 86.18701172 C-250.34571625 61.22096037 -237.76833776 38.86618257 -221.01171875 19.54296875 C-220.25890625 18.66769531 -219.50609375 17.79242188 -218.73046875 16.890625 C-214.14033946 11.66385106 -209.40925467 6.92670662 -204.01171875 2.54296875 C-203.13644531 1.80691406 -202.26117188 1.07085937 -201.359375 0.3125 C-144.60881835 -45.62842681 -56.89105573 -46.41306622 0 0 Z " fill="#F6F2F7" transform="translate(617.01171875,337.45703125)"/>
<path d="M0 0 C0.99 0.33 1.98 0.66 3 1 C12.41516075 24.21851833 7.47649124 57.63789448 6 82 C1.37007968 77.58557553 -1.10987445 72.06443111 -3 66 C-3.01566551 61.75986832 -2.09325336 58.07439331 -1 54 C0.60863073 47.27443847 1.27964854 40.96012227 1.1953125 34.0546875 C1.1924826 33.15879913 1.18965271 32.26291077 1.18673706 31.33987427 C1.1756684 28.51810536 1.1505901 25.69667067 1.125 22.875 C1.11495294 20.94531713 1.10583014 19.01562921 1.09765625 17.0859375 C1.07577294 12.390499 1.04133752 7.69530588 1 3 C0.34 2.67 -0.32 2.34 -1 2 C-0.67 1.34 -0.34 0.68 0 0 Z " fill="#876997" transform="translate(661,462)"/>
<path d="M0 0 C0.99 0.33 1.98 0.66 3 1 C3.2954394 7.403649 2.31822948 12.68594451 0.5 18.8125 C0.23372803 19.72177246 -0.03254395 20.63104492 -0.30688477 21.56787109 C-5.36486309 38.2772896 -12.24960865 57.40653279 -26 69 C-28.7421875 69.7421875 -28.7421875 69.7421875 -31 70 C-31 65.98683653 -29.00199737 64.26017042 -26.5625 61.3125 C-12.24788688 43.13093022 -5.83736689 22.18143664 0 0 Z " fill="#542964" transform="translate(662,574)"/>
<path d="M0 0 C0.66 0.33 1.32 0.66 2 1 C1.39414062 1.48726563 0.78828125 1.97453125 0.1640625 2.4765625 C-15.71587832 15.9134355 -23.94270886 32.85674282 -28 53 C-28.99 53 -29.98 53 -31 53 C-32.23997971 37.95491283 -26.34156344 26.10442439 -18 14 C-17.52949219 13.30003906 -17.05898438 12.60007812 -16.57421875 11.87890625 C-12.39596663 6.34487911 -6.24111186 2.84026647 0 0 Z " fill="#522562" transform="translate(476,454)"/>
<path d="M0 0 C3.55293571 0.86365829 5.00610232 2.49299686 6.9765625 5.48046875 C7.04600647 9.4387752 6.5465104 11.62554691 4.3515625 14.91796875 C1.0147854 17.11321684 -1.10892294 17.03968512 -5.0234375 16.48046875 C-8.29866695 14.32571254 -8.92573344 12.81632645 -10.0234375 9.04296875 C-10.0234375 5.48046875 -10.0234375 5.48046875 -8.5859375 2.54296875 C-5.68849658 0.21088215 -3.71860175 -0.25765593 0 0 Z " fill="#512760" transform="translate(562.0234375,388.51953125)"/>
<path d="M0 0 C3.4375 0.625 3.4375 0.625 5.875 2.75 C7.71792686 6.14098543 8.07108675 7.82347951 7.4375 11.625 C5.33923875 15.40187024 4.09820308 16.42442942 -0.0625 17.6875 C-3.5625 17.625 -3.5625 17.625 -5.9375 15.8125 C-8.5812906 12.25355111 -9.08649311 10.07894141 -8.5625 5.625 C-5.93038535 1.95599171 -4.47395674 0.78490469 0 0 Z " fill="#502861" transform="translate(646.5625,381.375)"/>
<path d="M0 0 C-1.03447266 0.69222656 -1.03447266 0.69222656 -2.08984375 1.3984375 C-14.15210234 9.77086939 -21.09064801 18.81321453 -27 32 C-27.99 32 -28.98 32 -30 32 C-29.57475203 20.73092888 -23.15023996 12.23969528 -15.59765625 4.265625 C-10.88611639 0.15631204 -6.10908243 -1.91764919 0 0 Z " fill="#512560" transform="translate(453,468)"/>
<path d="M0 0 C0.33 0 0.66 0 1 0 C1.33 3.3 1.66 6.6 2 10 C2.66 10 3.32 10 4 10 C4.33 11.32 4.66 12.64 5 14 C5.66 14 6.32 14 7 14 C8.31626692 17.61973402 9 20.09567131 9 24 C6.85423363 24.02685938 4.70837355 24.04633088 2.5625 24.0625 C1.36753906 24.07410156 0.17257812 24.08570313 -1.05859375 24.09765625 C-4 24 -4 24 -5 23 C-5.7866327 17.10670255 -4.85834566 12.97902646 -1.95703125 7.86328125 C-0.65027333 5.31910359 -0.28250072 2.82500724 0 0 Z " fill="#61366D" transform="translate(330,764)"/>
<path d="M0 0 C0.66 0 1.32 0 2 0 C1.835 1.216875 1.67 2.43375 1.5 3.6875 C0.52580864 12.79905448 0.21629961 21.26024242 3.34375 29.9765625 C4 32 4 32 4 35 C2.13671875 34.73828125 2.13671875 34.73828125 0 34 C-1.23046875 32.29296875 -1.23046875 32.29296875 -2.1875 30.1875 C-2.51105469 29.50042969 -2.83460938 28.81335938 -3.16796875 28.10546875 C-5.7998124 21.44554514 -6.40356716 13.23622089 -4.140625 6.40625 C-2.98597685 4.0969537 -1.84424148 1.84424148 0 0 Z " fill="#532762" transform="translate(484,443)"/>
<path d="M0 0 C11.55 0 23.1 0 35 0 C33.68 0.99 32.36 1.98 31 3 C30.48179687 3.46921875 29.96359375 3.9384375 29.4296875 4.421875 C26.18138465 7.19680708 23.75625652 8.40733818 19.4375 8.1875 C12.5501005 7.12298694 6.25422394 3.94687497 0 1 C0 0.67 0 0.34 0 0 Z " fill="#896998" transform="translate(408,663)"/>
<path d="M0 0 C0.66 0 1.32 0 2 0 C3.09632026 31.10225592 3.09632026 31.10225592 3.125 44.375 C3.12951172 45.23440186 3.13402344 46.09380371 3.13867188 46.97924805 C3.12432083 52.75135834 3.12432083 52.75135834 2 55 C3.32 55.33 4.64 55.66 6 56 C4.02 56 2.04 56 0 56 C0 37.52 0 19.04 0 0 Z " fill="#70487A" transform="translate(716,731)"/>
<path d="M0 0 C0.66 0 1.32 0 2 0 C1.85925049 0.90588867 1.71850098 1.81177734 1.57348633 2.74511719 C0.23195716 11.95194493 -0.35244947 20.92943662 -0.3125 30.25 C-0.31100952 30.9212088 -0.30951904 31.5924176 -0.3079834 32.28396606 C-0.24087168 49.18785455 2.58408083 64.74852083 7 81 C6.34 81 5.68 81 5 81 C4.19557436 77.96156943 3.40906124 74.91874334 2.625 71.875 C2.40328125 71.03839844 2.1815625 70.20179688 1.953125 69.33984375 C-1.17246317 57.11327825 -2.31751616 45.12644498 -2.20581055 32.55883789 C-2.18748349 30.43558704 -2.18530251 28.31277527 -2.18554688 26.18945312 C-2.1245932 2.1245932 -2.1245932 2.1245932 0 0 Z " fill="#E1D9E5" transform="translate(346,431)"/>
<path d="M0 0 C0.98033203 0.23009766 0.98033203 0.23009766 1.98046875 0.46484375 C5.75492159 1.13379594 9.48905996 1.35407297 13.3125 1.5625 C14.05306641 1.60568359 14.79363281 1.64886719 15.55664062 1.69335938 C17.37091464 1.79870432 19.1854355 1.89978316 21 2 C20 5 20 5 18 6 C15.75254466 6.12389818 13.50083658 6.1756285 11.25 6.1875 C10.03828125 6.20167969 8.8265625 6.21585937 7.578125 6.23046875 C4.03754382 6.00241822 1.29310645 5.27784652 -2 4 C-1.34 3.67 -0.68 3.34 0 3 C0 2.01 0 1.02 0 0 Z " fill="#64396E" transform="translate(640,460)"/>
<path d="M0 0 C5.05531868 0.77774134 10.01716284 1.85948394 15 3 C15 3.99 15 4.98 15 6 C16.98 6 18.96 6 21 6 C21 6.33 21 6.66 21 7 C13.16465389 7.61187085 7.1963309 6.06459719 0 3 C0 2.01 0 1.02 0 0 Z " fill="#60336A" transform="translate(563,464)"/>
<path d="M0 0 C0.66 0 1.32 0 2 0 C1.86722656 0.804375 1.73445313 1.60875 1.59765625 2.4375 C-0.22659489 14.58142002 -0.625201 26.73675946 -1 39 C-1.33 39 -1.66 39 -2 39 C-2.22790554 9.00412499 -2.22790554 9.00412499 -1 1 C-0.67 0.67 -0.34 0.34 0 0 Z " fill="#E9E2EC" transform="translate(346,431)"/>
<path d="M0 0 C0.33 0 0.66 0 1 0 C1.33 11.88 1.66 23.76 2 36 C1.34 36 0.68 36 0 36 C-1.24810335 32.21786865 -1.03501717 28.53200706 -0.87890625 24.609375 C-0.85529526 23.90476135 -0.83168427 23.20014771 -0.80735779 22.47418213 C-0.73103023 20.2325672 -0.64687421 17.99132504 -0.5625 15.75 C-0.5092483 14.2265805 -0.45650812 12.70314302 -0.40429688 11.1796875 C-0.27545752 7.45289845 -0.13959768 3.72640333 0 0 Z " fill="#DCD3DF" transform="translate(295,515)"/>
<path d="M0 0 C-1 3 -1 3 -3 4 C-4.64255791 4.12114921 -6.29052478 4.17540767 -7.9375 4.1875 C-8.81277344 4.20167969 -9.68804688 4.21585937 -10.58984375 4.23046875 C-13 4 -13 4 -16 2 C-14.08404518 1.66259915 -12.16720278 1.33023588 -10.25 1 C-9.18265625 0.814375 -8.1153125 0.62875 -7.015625 0.4375 C-4 0 -4 0 0 0 Z " fill="#52225D" transform="translate(661,462)"/>
<path d="M0 0 C3 4 3 4 2.6875 7.75 C2.460625 8.8225 2.23375 9.895 2 11 C6.455 10.505 6.455 10.505 11 10 C11 10.66 11 11.32 11 12 C7.37 12 3.74 12 0 12 C0 8.04 0 4.08 0 0 Z " fill="#4C1B5B" transform="translate(388,775)"/>
<path d="M0 0 C0.33 0 0.66 0 1 0 C1.19517554 1.93674185 1.38087873 3.87444009 1.5625 5.8125 C1.66691406 6.89144531 1.77132812 7.97039063 1.87890625 9.08203125 C2 12 2 12 1 15 C0.01 15 -0.98 15 -2 15 C-1.03644647 4.44191344 -1.03644647 4.44191344 0 0 Z " fill="#8A6491" transform="translate(248,738)"/>
<path d="M0 0 C6.27 0.33 12.54 0.66 19 1 C19 1.33 19 1.66 19 2 C16.36 2.33 13.72 2.66 11 3 C11 3.66 11 4.32 11 5 C9.53932801 4.54917531 8.08151968 4.08906463 6.625 3.625 C5.81289063 3.36976563 5.00078125 3.11453125 4.1640625 2.8515625 C2 2 2 2 0 0 Z " fill="#A087AB" transform="translate(408,663)"/>
<path d="M0 0 C1.67542976 0.28604898 3.34385343 0.61781233 5 1 C5 2.32 5 3.64 5 5 C3.35 5.33 1.7 5.66 0 6 C-0.38218767 4.34385343 -0.71395102 2.67542976 -1 1 C-0.67 0.67 -0.34 0.34 0 0 Z " fill="#E5E1EA" transform="translate(562,392)"/>
<path d="M0 0 C0.99 0.495 0.99 0.495 2 1 C2.95067299 4.28414305 3.10102197 5.69693408 2 9 C5.3 9 8.6 9 12 9 C12 9.33 12 9.66 12 10 C8.04 10 4.08 10 0 10 C0 6.7 0 3.4 0 0 Z " fill="#4F1D5C" transform="translate(345,777)"/>
<path d="M0 0 C2.37616467 2.37616467 3.04068181 4.35349521 4.1875 7.5 C4.55230469 8.4796875 4.91710937 9.459375 5.29296875 10.46875 C6 13 6 13 5 15 C1.28836791 12.3006312 0.70152875 8.2999586 0 4 C0 2.68 0 1.36 0 0 Z " fill="#CBB5CF" transform="translate(663,400)"/>
<path d="M0 0 C1.32 0.66 2.64 1.32 4 2 C3.67 3.32 3.34 4.64 3 6 C1.35 5.67 -0.3 5.34 -2 5 C-1.125 1.125 -1.125 1.125 0 0 Z " fill="#E6E0ED" transform="translate(648,385)"/>
<path d="M0 0 C0.33 0.99 0.66 1.98 1 3 C1.66 3 2.32 3 3 3 C2.34 4.98 1.68 6.96 1 9 C0.34 9 -0.32 9 -1 9 C-1.33 9.99 -1.66 10.98 -2 12 C-3.40907283 9.18185434 -2.50872691 7.82722796 -1.5625 4.875 C-1.27503906 3.96492187 -0.98757813 3.05484375 -0.69140625 2.1171875 C-0.46324219 1.41851563 -0.23507812 0.71984375 0 0 Z " fill="#845E8B" transform="translate(296,761)"/>
<path d="M0 0 C1.625 1.625 1.625 1.625 3 4 C2.16162022 8.02422296 0.6422749 10.87731148 -2 14 C-1.03644647 4.58997722 -1.03644647 4.58997722 0 0 Z " fill="#916F97" transform="translate(245,753)"/>
<path d="M0 0 C1.4606285 2.64738916 2 3.89448334 2 7 C0.68 7.33 -0.64 7.66 -2 8 C-2.20086443 4.28400809 -2.1519437 3.22791555 0 0 Z " fill="#541E5F" transform="translate(295,770)"/>
<path d="M0 0 C1.32 0.33 2.64 0.66 4 1 C2.35 2.65 0.7 4.3 -1 6 C-1.99 5.67 -2.98 5.34 -4 5 C-2.68 3.35 -1.36 1.7 0 0 Z " fill="#7D5687" transform="translate(498,733)"/>
<path d="M0 0 C0.99 0.33 1.98 0.66 3 1 C2.01 1.33 1.02 1.66 0 2 C-0.69658363 3.65438613 -1.36096883 5.32254318 -2 7 C-3.625 8.8125 -3.625 8.8125 -5 10 C-5 6.60406522 -4.47834052 5.93380119 -2.5 3.3125 C-2.0359375 2.68988281 -1.571875 2.06726563 -1.09375 1.42578125 C-0.7328125 0.95527344 -0.371875 0.48476563 0 0 Z " fill="#9A7CA4" transform="translate(496,772)"/>
<path d="M0 0 C3.31038651 1.65519326 3.78867011 4.65442221 5 8 C4.67 8.99 4.34 9.98 4 11 C3.67 9.68 3.34 8.36 3 7 C2.34 7 1.68 7 1 7 C0.67 4.69 0.34 2.38 0 0 Z " fill="#815F86" transform="translate(331,767)"/>
<path d="M0 0 C3.63 0 7.26 0 11 0 C10.34 1.32 9.68 2.64 9 4 C9 3.01 9 2.02 9 1 C4.39257135 2.21044132 4.39257135 2.21044132 0 4 C0 2.68 0 1.36 0 0 Z " fill="#511C5F" transform="translate(278,731)"/>
<path d="M0 0 C0.66 0.33 1.32 0.66 2 1 C-0.31 3.64 -2.62 6.28 -5 9 C-5.99 8.67 -6.98 8.34 -8 8 C-5.36 5.36 -2.72 2.72 0 0 Z " fill="#A892B0" transform="translate(349,280)"/>
<path d="M0 0 C0.99 0 1.98 0 3 0 C2.6875 1.875 2.6875 1.875 2 4 C1.01 4.66 0.02 5.32 -1 6 C-1.625 4.125 -1.625 4.125 -2 2 C-1.34 1.34 -0.68 0.68 0 0 Z " fill="#724981" transform="translate(476,778)"/>
<path d="M0 0 C0.99 0.66 1.98 1.32 3 2 C1.35 3.32 -0.3 4.64 -2 6 C-2.66 5.34 -3.32 4.68 -4 4 C-2.68 2.68 -1.36 1.36 0 0 Z " fill="#754D80" transform="translate(424,757)"/>
<path d="M0 0 C2.97 0 5.94 0 9 0 C9.66 1.65 10.32 3.3 11 5 C7.37 3.68 3.74 2.36 0 1 C0 0.67 0 0.34 0 0 Z " fill="#A284AC" transform="translate(636,739)"/>
<path d="M0 0 C1.5625 1.8125 1.5625 1.8125 3 4 C2.67 4.99 2.34 5.98 2 7 C0.35 5.68 -1.3 4.36 -3 3 C-2.01 2.67 -1.02 2.34 0 2 C0 1.34 0 0.68 0 0 Z " fill="#9D82A5" transform="translate(605,310)"/>
<path d="M0 0 C0.33 0 0.66 0 1 0 C1.125 5.75 1.125 5.75 0 8 C-0.66 8 -1.32 8 -2 8 C-1.125 1.125 -1.125 1.125 0 0 Z " fill="#531F60" transform="translate(327,774)"/>
<path d="M0 0 C0.33 0 0.66 0 1 0 C1.33 3.96 1.66 7.92 2 12 C1.67 11.34 1.34 10.68 1 10 C0.34 10 -0.32 10 -1 10 C-0.67 6.7 -0.34 3.4 0 0 Z " fill="#A992AE" transform="translate(238,754)"/>
<path d="M0 0 C0.33 0 0.66 0 1 0 C0.74438677 2.3431213 0.40729228 4.67843403 0 7 C-0.99 7.495 -0.99 7.495 -2 8 C-1.125 1.125 -1.125 1.125 0 0 Z " fill="#51215D" transform="translate(303,745)"/>
</svg>
